<svg xmlns="http://www.w3.org/2000/svg" viewBox="0 0 64 64">
  <defs>
    <linearGradient id="bg" x1="12" y1="8" x2="54" y2="58" gradientUnits="userSpaceOnUse">
      <stop stop-color="#18181b" />
      <stop offset="0.52" stop-color="#312e81" />
      <stop offset="1" stop-color="#0891b2" />
    </linearGradient>
    <linearGradient id="bar" x1="18" y1="18" x2="46" y2="48" gradientUnits="userSpaceOnUse">
      <stop stop-color="#fef3c7" />
      <stop offset="0.45" stop-color="#a7f3d0" />
      <stop offset="1" stop-color="#bfdbfe" />
    </linearGradient>
  </defs>
  <rect width="64" height="64" rx="18" fill="url(#bg)" />
  <path d="M17 46V34c0-1.1.9-2 2-2h4c1.1 0 2 .9 2 2v12h-8Zm12 0V24c0-1.1.9-2 2-2h4c1.1 0 2 .9 2 2v22h-8Zm12 0V29c0-1.1.9-2 2-2h4c1.1 0 2 .9 2 2v17h-8Z" fill="url(#bar)" />
  <path d="M16 25.5c6.4 2.2 10.8-8.2 17-4.4 5.9 3.6 8.6-4.7 15-2.1" fill="none" stroke="#fff" stroke-width="4" stroke-linecap="round" stroke-linejoin="round" />
  <path d="m47.8 10.8 1.5 3.8 3.9 1.6-3.9 1.5-1.5 3.9-1.6-3.9-3.8-1.5 3.8-1.6 1.6-3.8Z" fill="#fde68a" />
  <circle cx="19" cy="24" r="3.5" fill="#fff" />
  <circle cx="33" cy="21" r="3.5" fill="#fff" />
  <circle cx="48" cy="19" r="3.5" fill="#fff" />
</svg>
